<?xml version="1.0" ?><!DOCTYPE svg  PUBLIC '-//W3C//DTD SVG 1.1//EN'  'http://www.w3.org/Graphics/SVG/1.1/DTD/svg11.dtd'><svg enable-background="new 0 0 128 128" id="Слой_1" version="1.1" viewBox="0 0 128 128" xml:space="preserve" xmlns="http://www.w3.org/2000/svg" xmlns:xlink="http://www.w3.org/1999/xlink"><g><g><g><path d="M105.2,32.3V109c0,8.3-6.7,15-15,15H37.8c-8.3,0-15-6.7-15-15V32.3c0-8.3,6.7-15,15-15h52.4     C98.5,17.3,105.2,24,105.2,32.3z" fill="#FFFFFF"/></g><g><g><path d="M38.9,111.1c-4.8,0-8.8-3.9-8.8-8.8s3.9-8.8,8.8-8.8s8.8,3.9,8.8,8.8S43.7,111.1,38.9,111.1z M38.9,96.1      c-3.4,0-6.2,2.8-6.2,6.2s2.8,6.2,6.2,6.2s6.2-2.8,6.2-6.2S42.3,96.1,38.9,96.1z" fill="#62355C"/></g></g><g><path d="M90.2,125.2H37.8c-9,0-16.2-7.3-16.2-16.2V32.3c0-9,7.3-16.2,16.2-16.2h52.4c9,0,16.2,7.3,16.2,16.2V109     C106.5,118,99.2,125.2,90.2,125.2z M37.8,18.6c-7.6,0-13.8,6.2-13.8,13.8V109c0,7.6,6.2,13.8,13.8,13.8h52.4     c7.6,0,13.8-6.2,13.8-13.8V32.3c0-7.6-6.2-13.8-13.8-13.8H37.8z" fill="#62355C"/></g><g><path d="M70.7,17.3v-6.7C70.7,7,67.7,4,64,4s-6.7,3-6.7,6.7v6.7H44V24c0,3.7,3,6.7,6.7,6.7h26.7     c3.7,0,6.7-3,6.7-6.7v-6.7H70.7z M64,14.5c-2.1,0-3.8-1.7-3.8-3.8C60.2,8.7,61.9,7,64,7s3.8,1.7,3.8,3.8     C67.8,12.8,66.1,14.5,64,14.5z" fill="#938993"/></g><g><g><g><path d="M91.9,103.6h-33c-0.7,0-1.2-0.6-1.2-1.2s0.6-1.2,1.2-1.2h33c0.7,0,1.2,0.6,1.2,1.2       S92.6,103.6,91.9,103.6z" fill="#62355C"/></g></g><g><g><path d="M38.9,84.4c-4.8,0-8.8-3.9-8.8-8.8s3.9-8.8,8.8-8.8s8.8,3.9,8.8,8.8S43.7,84.4,38.9,84.4z M38.9,69.4       c-3.4,0-6.2,2.8-6.2,6.2s2.8,6.2,6.2,6.2s6.2-2.8,6.2-6.2S42.3,69.4,38.9,69.4z" fill="#62355C"/></g><g><path d="M91.9,76.9h-33c-0.7,0-1.2-0.6-1.2-1.2s0.6-1.2,1.2-1.2h33c0.7,0,1.2,0.6,1.2,1.2S92.6,76.9,91.9,76.9z       " fill="#62355C"/></g></g><g><g><circle cx="38.9" cy="49" fill="#65C5B4" r="7.5"/></g><g><circle cx="38.9" cy="75.7" fill="#65C5B4" r="7.5"/></g><g><circle cx="38.9" cy="102.3" fill="#FFFFFF" r="7.5"/></g><g><g><path d="M38.9,111.1c-4.8,0-8.8-3.9-8.8-8.8s3.9-8.8,8.8-8.8s8.8,3.9,8.8,8.8S43.7,111.1,38.9,111.1z         M38.9,96.1c-3.4,0-6.2,2.8-6.2,6.2s2.8,6.2,6.2,6.2s6.2-2.8,6.2-6.2S42.3,96.1,38.9,96.1z" fill="#62355C"/></g></g><g><path d="M38.9,84.4c-4.8,0-8.8-3.9-8.8-8.8s3.9-8.8,8.8-8.8s8.8,3.9,8.8,8.8S43.7,84.4,38.9,84.4z M38.9,69.4       c-3.4,0-6.2,2.8-6.2,6.2s2.8,6.2,6.2,6.2s6.2-2.8,6.2-6.2S42.3,69.4,38.9,69.4z" fill="#62355C"/></g><g><path d="M38.9,57.8c-4.8,0-8.8-3.9-8.8-8.8s3.9-8.8,8.8-8.8s8.8,3.9,8.8,8.8S43.7,57.8,38.9,57.8z M38.9,42.8       c-3.4,0-6.2,2.8-6.2,6.2s2.8,6.2,6.2,6.2s6.2-2.8,6.2-6.2S42.3,42.8,38.9,42.8z" fill="#62355C"/></g><g><path d="M91.9,50.2h-33c-0.7,0-1.2-0.6-1.2-1.2s0.6-1.2,1.2-1.2h33c0.7,0,1.2,0.6,1.2,1.2S92.6,50.2,91.9,50.2z       " fill="#62355C"/></g></g></g><g><path d="M77.3,31.9H50.7c-4.4,0-7.9-3.6-7.9-7.9v-6.7c0-0.7,0.6-1.2,1.2-1.2h12.1v-5.4c0-4.4,3.6-7.9,7.9-7.9     s7.9,3.6,7.9,7.9v5.4H84c0.7,0,1.2,0.6,1.2,1.2V24C85.2,28.4,81.7,31.9,77.3,31.9z M45.2,18.6V24c0,3,2.4,5.4,5.4,5.4h26.7     c3,0,5.4-2.4,5.4-5.4v-5.4H70.7c-0.7,0-1.2-0.6-1.2-1.2v-6.7c0-3-2.4-5.4-5.4-5.4s-5.4,2.4-5.4,5.4v6.7c0,0.7-0.6,1.2-1.2,1.2     H45.2z" fill="#62355C"/></g><g><path d="M64,15.8c-2.8,0-5-2.2-5-5s2.2-5,5-5s5,2.2,5,5S66.8,15.8,64,15.8z M64,8.2c-1.4,0-2.5,1.1-2.5,2.5     s1.1,2.5,2.5,2.5s2.5-1.1,2.5-2.5S65.4,8.2,64,8.2z" fill="#62355C"/></g></g></g></svg>